<mxfile host="65bd71144e">
    <diagram id="GInHtZuMB5CcCfA9ihm7" name="Page-1">
        <mxGraphModel dx="1074" dy="749" grid="1" gridSize="10" guides="1" tooltips="1" connect="1" arrows="1" fold="1" page="1" pageScale="1" pageWidth="850" pageHeight="1100" math="0" shadow="0">
            <root>
                <mxCell id="0"/>
                <mxCell id="1" parent="0"/>
                <mxCell id="25" style="edgeStyle=none;html=1;" edge="1" parent="1" source="26" target="28">
                    <mxGeometry relative="1" as="geometry"/>
                </mxCell>
                <mxCell id="26" value="Start" style="strokeWidth=2;html=1;shape=mxgraph.flowchart.terminator;whiteSpace=wrap;" vertex="1" parent="1">
                    <mxGeometry x="340" y="230" width="100" height="60" as="geometry"/>
                </mxCell>
                <mxCell id="27" style="edgeStyle=none;html=1;" edge="1" parent="1" source="28">
                    <mxGeometry relative="1" as="geometry">
                        <mxPoint x="390" y="430" as="targetPoint"/>
                    </mxGeometry>
                </mxCell>
                <mxCell id="28" value="enter number" style="shape=parallelogram;html=1;strokeWidth=2;perimeter=parallelogramPerimeter;whiteSpace=wrap;rounded=1;arcSize=12;size=0.23;" vertex="1" parent="1">
                    <mxGeometry x="340" y="330" width="100" height="60" as="geometry"/>
                </mxCell>
                <mxCell id="29" style="edgeStyle=orthogonalEdgeStyle;html=1;entryX=0;entryY=0.5;entryDx=0;entryDy=0;" edge="1" parent="1" source="30" target="34">
                    <mxGeometry relative="1" as="geometry">
                        <Array as="points">
                            <mxPoint x="270" y="750"/>
                            <mxPoint x="270" y="630"/>
                        </Array>
                    </mxGeometry>
                </mxCell>
                <mxCell id="30" value="&lt;div&gt;&amp;nbsp;age = age + 1;&lt;/div&gt;&lt;div&gt;&amp;nbsp; &amp;nbsp; &amp;nbsp; answer = answer - number2;&lt;/div&gt;&lt;div&gt;&amp;nbsp; &amp;nbsp; }&lt;/div&gt;" style="shape=parallelogram;html=1;strokeWidth=2;perimeter=parallelogramPerimeter;whiteSpace=wrap;rounded=1;arcSize=12;size=0.23;" vertex="1" parent="1">
                    <mxGeometry x="340" y="730" width="100" height="60" as="geometry"/>
                </mxCell>
                <mxCell id="31" value="Stop" style="strokeWidth=2;html=1;shape=mxgraph.flowchart.terminator;whiteSpace=wrap;" vertex="1" parent="1">
                    <mxGeometry x="590" y="690" width="100" height="60" as="geometry"/>
                </mxCell>
                <mxCell id="32" style="edgeStyle=none;html=1;" edge="1" parent="1" source="34" target="30">
                    <mxGeometry relative="1" as="geometry"/>
                </mxCell>
                <mxCell id="33" style="edgeStyle=orthogonalEdgeStyle;html=1;entryX=0;entryY=0.5;entryDx=0;entryDy=0;" edge="1" parent="1" source="34" target="36">
                    <mxGeometry relative="1" as="geometry"/>
                </mxCell>
                <mxCell id="34" value="&lt;div&gt;&amp;nbsp;if (number1 &amp;gt; 0 &amp;amp;&amp;amp; number2 &amp;gt; 0) {&lt;/div&gt;&lt;div&gt;&amp;nbsp; &amp;nbsp; while (answer &amp;gt;= number2)&amp;nbsp;&lt;/div&gt;" style="rhombus;whiteSpace=wrap;html=1;" vertex="1" parent="1">
                    <mxGeometry x="320" y="560" width="140" height="140" as="geometry"/>
                </mxCell>
                <mxCell id="35" style="edgeStyle=orthogonalEdgeStyle;html=1;entryX=0.5;entryY=0;entryDx=0;entryDy=0;entryPerimeter=0;" edge="1" parent="1" source="36">
                    <mxGeometry relative="1" as="geometry">
                        <mxPoint x="640" y="690" as="targetPoint"/>
                    </mxGeometry>
                </mxCell>
                <mxCell id="36" value="&lt;div&gt;print answer&lt;/div&gt;" style="shape=parallelogram;html=1;strokeWidth=2;perimeter=parallelogramPerimeter;whiteSpace=wrap;rounded=1;arcSize=12;size=0.23;" vertex="1" parent="1">
                    <mxGeometry x="500" y="610" width="90" height="60" as="geometry"/>
                </mxCell>
                <mxCell id="38" style="edgeStyle=none;html=1;" edge="1" parent="1" source="37" target="34">
                    <mxGeometry relative="1" as="geometry"/>
                </mxCell>
                <mxCell id="37" value="enter number" style="shape=parallelogram;html=1;strokeWidth=2;perimeter=parallelogramPerimeter;whiteSpace=wrap;rounded=1;arcSize=12;size=0.23;" vertex="1" parent="1">
                    <mxGeometry x="340" y="430" width="100" height="60" as="geometry"/>
                </mxCell>
                <mxCell id="39" value="yes" style="text;html=1;resizable=0;autosize=1;align=center;verticalAlign=middle;points=[];fillColor=none;strokeColor=none;rounded=0;" vertex="1" parent="1">
                    <mxGeometry x="465" y="610" width="30" height="20" as="geometry"/>
                </mxCell>
                <mxCell id="40" value="no" style="text;html=1;resizable=0;autosize=1;align=center;verticalAlign=middle;points=[];fillColor=none;strokeColor=none;rounded=0;" vertex="1" parent="1">
                    <mxGeometry x="360" y="700" width="30" height="20" as="geometry"/>
                </mxCell>
            </root>
        </mxGraphModel>
    </diagram>
</mxfile>